# xmcd
#
# Track frame offsets: 
#        150
#        32913
#        46423
#        59844
#        73867
#        88044
#        103256
#        116008
#        129869
#        145032
#        155785
#        169161
#        191049
#        205119
#        218499
#        231866
#        243153
#        258728
#        271444
#        284294
#        298931
#        312449
#        325438
#        338843
#
# Disc length: 4650 seconds
#
# Revision: 2
# Processed by: cddbd v1.5.2PL0 Copyright (c) Steve Scherf et al.
# Submitted via: ExactAudioCopy v0.99pb3
#
DISCID=84122818
DTITLE=Various Artist - Battle Of Saxes - Volume 1 CD 1
DYEAR=2004
DGENRE=Instrumental
TTITLE0=Ted Edwards - Hornin' In
TTITLE1=Coleman Hawkins - Body And Soul
TTITLE2=Charlie Ventura - Dark Eyes
TTITLE3=Arnett Cobb - Cobb's Idea
TTITLE4=Ben Webster - Sleep
TTITLE5=Lucky Thompson - Irresistible You
TTITLE6=Gene Ammons - Baby, Won't You Please Say Yes
TTITLE7=Lester Young - You Driving Me Crazy
TTITLE8=Wardell Gray - Southside
TTITLE9=Don Byas - They Say It's Wonderful
TTITLE10=Dexter Gordon - Blow, Mr. Dexter
TTITLE11=Frank Forster - Fas Shoes
TTITLE12=Paul Quinichette - Green's Blues
TTITLE13=James Moody and Art Blakey - The Fuller Bop Man
TTITLE14=Ted Edwards - Blues In Teddy's Flat
TTITLE15=Stan Getz - Strike Up The Band
TTITLE16=Gerry Mulligan - It May Be Wrong
TTITLE17=Zoot Sims - Tenorly
TTITLE18='lockjaw' Davis - Foxy Eddie
TTITLE19=Dexter Gordon - I Can't Escape From You
TTITLE20=Dexter Gordon - The Rubaiyat
TTITLE21=Dexter Gordon - Citizen Bop
TTITLE22=Sonny Stitt - All God's Chillun Got Rhythm
TTITLE23=Sonny Rollins - Scoops
EXTD=CD 1 - 4
EXTT0=
EXTT1=
EXTT2=
EXTT3=
EXTT4=
EXTT5=
EXTT6=
EXTT7=
EXTT8=
EXTT9=
EXTT10=
EXTT11=
EXTT12=
EXTT13=
EXTT14=
EXTT15=
EXTT16=
EXTT17=
EXTT18=
EXTT19=
EXTT20=
EXTT21=
EXTT22=
EXTT23=
PLAYORDER=
